<?xml version="1.0" encoding="iso-8859-1"?>
<!-- Generator: Adobe Illustrator 19.0.0, SVG Export Plug-In . SVG Version: 6.00 Build 0)  -->
<svg version="1.1" id="Layer_1" xmlns="http://www.w3.org/2000/svg" xmlns:xlink="http://www.w3.org/1999/xlink" x="0px" y="0px"
	 viewBox="0 0 128 128" style="enable-background:new 0 0 128 128;" xml:space="preserve">
<polygon style="fill:#BD8150;" points="124.2,70 127,70 127,74 125,74 10,74 3,74 1,74 1,70 3.2,70 "/>
<polygon style="fill:#9F633C;" points="125,100 125,110 118,110 118,100 10,100 10,110 3,110 3,100 3,74 10,74 125,74 "/>
<polygon style="fill:#BD8150;" points="123,18 123,22 121,22 114,22 14,22 7,22 5,22 5,18 "/>
<polygon style="fill:#9F633C;" points="121,22 121,54.2 110,54.2 110,42 114,42 114,22 "/>
<path style="fill:#E8C09E;" d="M106.2,32h-38C66,32,64,33.8,64,36v1v5v2v10.2V55c0,2.2,2,4,4.2,4h38c2.2,0,3.8-1.8,3.8-4v-0.8V42v-6
	C110,33.8,108.4,32,106.2,32z"/>
<path style="fill:#BD8150;" d="M68.2,32C66,32,64,33.8,64,36c0-2.2-1.6-4-3.8-4h-38C20,32,18,33.8,18,36v6h-4V22h100v20h-4v-6
	c0-2.2-1.6-4-3.8-4H68.2z"/>
<path style="fill:#D19C74;" d="M64,55c0,2.2,2,4,4.2,4h38c2.2,0,3.8-1.8,3.8-4h11l3.2,15H3.2l4-15H18c0,2.2,2,4,4.2,4h38
	C62.4,59,64,57.2,64,55z"/>
<path style="fill:#E8C09E;" d="M60.2,32h-38C20,32,18,33.8,18,36v6v12.2V55c0,2.2,2,4,4.2,4h38c2.2,0,3.8-1.8,3.8-4v-0.8V44v-2v-5
	v-1C64,33.8,62.4,32,60.2,32z"/>
<polygon style="fill:#9F633C;" points="18,42 18,54.2 7,54.2 7,22 14,22 14,42 "/>
<polygon points="115,43 110.7,43 110.7,41 113,41 113,23 15,23 15,41 17.1,41 17.1,43 13,43 13,21 115,21 "/>
<path d="M125,111h-7c-0.6,0-1-0.4-1-1v-9H11v9c0,0.6-0.4,1-1,1H3c-0.6,0-1-0.4-1-1V74c0-0.6,0.4-1,1-1s1,0.4,1,1v35h5v-9
	c0-0.6,0.4-1,1-1h108c0.6,0,1,0.4,1,1v9h5V74c0-0.6,0.4-1,1-1s1,0.4,1,1v36C126,110.6,125.6,111,125,111z"/>
<path d="M3.2,71c-0.1,0-0.2,0-0.3,0c-0.5-0.1-0.9-0.7-0.7-1.2l4-15c0.1-0.5,0.7-0.9,1.2-0.7c0.5,0.1,0.9,0.7,0.7,1.2l-4,15
	C4,70.7,3.6,71,3.2,71z"/>
<path d="M124.2,71c-0.5,0-0.9-0.3-1-0.8l-3-15c-0.1-0.5,0.2-1.1,0.8-1.2c0.5-0.1,1.1,0.2,1.2,0.8l3,15c0.1,0.5-0.2,1.1-0.8,1.2
	C124.3,71,124.2,71,124.2,71z"/>
<path d="M121,56h-11c-0.6,0-1-0.4-1-1s0.4-1,1-1h11c0.6,0,1,0.4,1,1S121.6,56,121,56z"/>
<path d="M18,56H7c-0.6,0-1-0.4-1-1s0.4-1,1-1h11c0.6,0,1,0.4,1,1S18.6,56,18,56z"/>
<path d="M127,75H1c-0.6,0-1-0.4-1-1v-4c0-0.6,0.4-1,1-1h126c0.6,0,1,0.4,1,1v4C128,74.6,127.6,75,127,75z M2,73h124v-2H2V73z"/>
<path d="M121,56c-0.6,0-1-0.4-1-1V22c0-0.6,0.4-1,1-1s1,0.4,1,1v33C122,55.6,121.6,56,121,56z"/>
<path d="M7,56c-0.6,0-1-0.4-1-1V22c0-0.6,0.4-1,1-1s1,0.4,1,1v33C8,55.6,7.6,56,7,56z"/>
<path d="M123,23H5c-0.6,0-1-0.4-1-1v-4c0-0.6,0.4-1,1-1h118c0.6,0,1,0.4,1,1v4C124,22.6,123.6,23,123,23z M6,21h116v-2H6V21z"/>
<path d="M106.2,60h-38c-2.8,0-5.2-2.3-5.2-5c0-0.6,0.4-1,1-1s1,0.4,1,1c0,1.6,1.5,3,3.2,3h38c1.6,0,2.8-1.3,2.8-3V36
	c0-1.7-1.2-3-2.8-3h-38c-1.7,0-3.2,1.4-3.2,3c0,0.6-0.4,1-1,1s-1-0.4-1-1c0-2.7,2.4-5,5.2-5h38c2.7,0,4.8,2.2,4.8,5v19
	C111,57.8,108.9,60,106.2,60z"/>
<path d="M60.2,60h-38c-2.8,0-5.2-2.3-5.2-5V36c0-2.7,2.4-5,5.2-5h38c2.7,0,4.8,2.2,4.8,5v1c0,0.6-0.4,1-1,1s-1-0.4-1-1v-1
	c0-1.7-1.2-3-2.8-3h-38c-1.7,0-3.2,1.4-3.2,3v19c0,1.6,1.5,3,3.2,3h38c1.6,0,2.8-1.3,2.8-3V44c0-0.6,0.4-1,1-1s1,0.4,1,1v11
	C65,57.8,62.9,60,60.2,60z"/>
<g>
</g>
<g>
</g>
<g>
</g>
<g>
</g>
<g>
</g>
<g>
</g>
<g>
</g>
<g>
</g>
<g>
</g>
<g>
</g>
<g>
</g>
<g>
</g>
<g>
</g>
<g>
</g>
<g>
</g>
</svg>
