<?xml version="1.0" encoding="iso-8859-1"?>
<!-- Generator: Adobe Illustrator 19.0.0, SVG Export Plug-In . SVG Version: 6.00 Build 0)  -->
<svg version="1.1" id="Layer_1" xmlns="http://www.w3.org/2000/svg" xmlns:xlink="http://www.w3.org/1999/xlink" x="0px" y="0px"
	 viewBox="0 0 512 512" style="enable-background:new 0 0 512 512;" xml:space="preserve">
<path style="fill:#9F633C;" d="M439.8,316.4c0,6.4-5.2,11.6-11.2,11.6H83.4c-6.4,0-11.2-5.6-11.2-11.6v-29.2
	c0-6.4,5.2-11.2,11.2-11.2h345.2c6.4,0,11.2,4.8,11.2,11.2V316.4z"/>
<path style="fill:#140500;" d="M428.6,332H83.4c-8.4,0-15.2-7.2-15.2-15.6v-29.2c0-8.4,6.8-15.2,15.2-15.2h345.2
	c8.8,0,15.2,6.4,15.2,15.2v29.2C443.8,324.8,436.6,332,428.6,332z M83,280c-4,0-7.2,3.2-7.2,7.2v29.2c0,4,3.2,7.6,7.2,7.6h345.2
	c4,0,7.2-3.6,7.2-7.6v-29.2c0-4-3.2-7.2-7.2-7.2H83z"/>
<path style="fill:#9F633C;" d="M411.8,124.4c0,6.4-5.2,11.6-11.2,11.6H111.4c-6.4,0-11.2-5.6-11.2-11.6V15.2
	c0-6.4,5.2-11.2,11.2-11.2h289.2c6.4,0,11.2,4.8,11.2,11.2V124.4z"/>
<path style="fill:#140500;" d="M400.6,140H111.4c-8.4,0-15.2-7.2-15.2-15.6V15.2C96.2,6.8,103,0,111.4,0h289.2
	c8.8,0,15.2,6.4,15.2,15.2v109.2C415.8,132.8,408.6,140,400.6,140z M111,8c-4,0-7.2,3.2-7.2,7.2v109.2c0,4,3.2,7.6,7.2,7.6h289.2
	c4,0,7.2-3.6,7.2-7.6V15.2c0-4-3.2-7.2-7.2-7.2H111z"/>
<rect x="107.8" y="328" style="fill:#D89F6C;" width="52" height="180"/>
<path style="fill:#140500;" d="M159.8,512h-52c-2.4,0-4-1.6-4-4V328c0-2.4,1.6-4,4-4h52c2.4,0,4,1.6,4,4v180
	C163.8,510.4,162.2,512,159.8,512z M111.8,504h44V332h-44V504z"/>
<rect x="355.8" y="328" style="fill:#D89F6C;" width="48" height="180"/>
<g>
	<path style="fill:#140500;" d="M403.8,512h-48c-2.4,0-4-1.6-4-4V328c0-2.4,1.6-4,4-4h48c2.4,0,4,1.6,4,4v180
		C407.8,510.4,406.2,512,403.8,512z M359.8,504h40V332h-40V504z"/>
	<path style="fill:#140500;" d="M355.8,380h-196c-2.4,0-4-1.6-4-4s1.6-4,4-4h196c2.4,0,4,1.6,4,4S358.2,380,355.8,380z"/>
	<path style="fill:#140500;" d="M419.8,296h-32c-2.4,0-4-1.6-4-4s1.6-4,4-4h32c2.4,0,4,1.6,4,4S422.2,296,419.8,296z"/>
	<path style="fill:#140500;" d="M363.8,296h-272c-2.4,0-4-1.6-4-4s1.6-4,4-4h272c2.4,0,4,1.6,4,4S366.2,296,363.8,296z"/>
</g>
<polyline style="fill:#D89F6C;" points="135.8,136 135.8,276 171.8,276 171.8,136 "/>
<path style="fill:#140500;" d="M171.8,280h-36c-2.4,0-4-1.6-4-4V136c0-2.4,1.6-4,4-4s4,1.6,4,4v136h28V136c0-2.4,1.6-4,4-4
	s4,1.6,4,4v140C175.8,278.4,174.2,280,171.8,280z"/>
<polyline style="fill:#D89F6C;" points="343.8,136 343.8,276 379.8,276 379.8,136 "/>
<path style="fill:#140500;" d="M379.8,280h-36c-2.4,0-4-1.6-4-4V136c0-2.4,1.6-4,4-4s4,1.6,4,4v136h28V136c0-2.4,1.6-4,4-4
	s4,1.6,4,4v140C383.8,278.4,382.2,280,379.8,280z"/>
<polyline style="fill:#D89F6C;" points="239.8,136 239.8,276 275.8,276 275.8,136 "/>
<g>
	<path style="fill:#140500;" d="M275.8,280h-36c-2.4,0-4-1.6-4-4V136c0-2.4,1.6-4,4-4s4,1.6,4,4v136h28V136c0-2.4,1.6-4,4-4
		s4,1.6,4,4v140C279.8,278.4,278.2,280,275.8,280z"/>
	<path style="fill:#140500;" d="M255.8,24h-136c-2.4,0-4-1.6-4-4s1.6-4,4-4h136c2.4,0,4,1.6,4,4S258.2,24,255.8,24z"/>
	<path style="fill:#140500;" d="M347.8,24h-64c-2.4,0-4-1.6-4-4s1.6-4,4-4h64c2.4,0,4,1.6,4,4S350.2,24,347.8,24z"/>
	<path style="fill:#140500;" d="M387.8,24h-16c-2.4,0-4-1.6-4-4s1.6-4,4-4h16c2.4,0,4,1.6,4,4S390.2,24,387.8,24z"/>
</g>
<g>
</g>
<g>
</g>
<g>
</g>
<g>
</g>
<g>
</g>
<g>
</g>
<g>
</g>
<g>
</g>
<g>
</g>
<g>
</g>
<g>
</g>
<g>
</g>
<g>
</g>
<g>
</g>
<g>
</g>
</svg>
