<?xml version="1.0" encoding="iso-8859-1"?>
<!-- Generator: Adobe Illustrator 19.0.0, SVG Export Plug-In . SVG Version: 6.00 Build 0)  -->
<svg version="1.1" id="Layer_1" xmlns="http://www.w3.org/2000/svg" xmlns:xlink="http://www.w3.org/1999/xlink" x="0px" y="0px"
	 viewBox="0 0 512 512" style="enable-background:new 0 0 512 512;" xml:space="preserve">
<path style="fill:#9F633C;" d="M280.8,242c0,5.6,4.4,10,10,10s10-4.4,10-10s-4.4-10-10-10S280.8,236.4,280.8,242z M428,4
	c8.8,0,16,7.2,16,16v448c0,8.8-7.2,16-16,16H256V4H428z"/>
<polygon style="fill:#5D4037;" points="428,484 428,508 84,508 84,484 256,484 "/>
<g>
	<circle style="fill:#D6BA9B;" cx="290.8" cy="242" r="10"/>
	<circle style="fill:#D6BA9B;" cx="222.8" cy="242" r="10"/>
</g>
<path style="fill:#9F633C;" d="M212.8,242c0,5.6,4.4,10,10,10s10-4.4,10-10s-4.4-10-10-10S212.8,236.4,212.8,242z M256,4v480H84
	c-8.8,0-16-7.2-16-16V20c0-8.8,7.2-16,16-16H256z"/>
<path d="M428,512H84c-2.4,0-4-1.6-4-4v-24c0-2.4,1.6-4,4-4s4,1.6,4,4v20h336v-20c0-2.4,1.6-4,4-4s4,1.6,4,4v24
	C432,510.4,430.4,512,428,512z"/>
<path d="M428,488H84c-11.2,0-20-8.8-20-20V20C64,8.8,72.8,0,84,0h344c11.2,0,20,8.8,20,20v448C448,479.2,439.2,488,428,488z M84,8
	c-6.8,0-12,5.2-12,12v448c0,6.8,5.2,12,12,12h344c6.8,0,12-5.2,12-12V20c0-6.8-5.2-12-12-12H84z"/>
<path d="M256,488c-2.4,0-4-1.6-4-4V4c0-2.4,1.6-4,4-4s4,1.6,4,4v480C260,486.4,258.4,488,256,488z"/>
<path d="M222.8,256c-7.6,0-14-6.4-14-14s6.4-14,14-14s14,6.4,14,14S230.4,256,222.8,256z M222.8,236c-3.2,0-6,2.8-6,6s2.8,6,6,6
	s6-2.8,6-6S226,236,222.8,236z"/>
<path d="M290.8,256c-7.6,0-14-6.4-14-14s6.4-14,14-14s14,6.4,14,14S298.4,256,290.8,256z M290.8,236c-3.2,0-6,2.8-6,6s2.8,6,6,6
	s6-2.8,6-6S294,236,290.8,236z"/>
<path d="M424,28h-16c-2.4,0-4-1.6-4-4s1.6-4,4-4h16c2.4,0,4,1.6,4,4S426.4,28,424,28z"/>
<path d="M392,28h-16c-2.4,0-4-1.6-4-4s1.6-4,4-4h16c2.4,0,4,1.6,4,4S394.4,28,392,28z"/>
<path d="M88,356c-2.4,0-4-1.6-4-4v-20c0-2.4,1.6-4,4-4s4,1.6,4,4v20C92,354.4,90.4,356,88,356z"/>
<path d="M88,452c-2.4,0-4-1.6-4-4v-72c0-2.4,1.6-4,4-4s4,1.6,4,4v72C92,450.4,90.4,452,88,452z"/>
<path d="M424,84c-2.4,0-4-1.6-4-4V24c0-2.4,1.6-4,4-4s4,1.6,4,4v56C428,82.4,426.4,84,424,84z"/>
<g>
</g>
<g>
</g>
<g>
</g>
<g>
</g>
<g>
</g>
<g>
</g>
<g>
</g>
<g>
</g>
<g>
</g>
<g>
</g>
<g>
</g>
<g>
</g>
<g>
</g>
<g>
</g>
<g>
</g>
</svg>
