<?xml version="1.0" encoding="iso-8859-1"?>
<!-- Generator: Adobe Illustrator 19.0.0, SVG Export Plug-In . SVG Version: 6.00 Build 0)  -->
<svg version="1.1" id="Layer_1" xmlns="http://www.w3.org/2000/svg" xmlns:xlink="http://www.w3.org/1999/xlink" x="0px" y="0px"
	 viewBox="0 0 512 512" style="enable-background:new 0 0 512 512;" xml:space="preserve">
<polyline style="fill:#9F633C;" points="480,164 480,232 466,232 334,232 320,232 320,164 334,164 412,164 "/>
<g>
	<path style="fill:#140500;" d="M480,236H320c-2.4,0-4-1.6-4-4v-68c0-2.4,1.6-4,4-4h92c2.4,0,4,1.6,4,4s-1.6,4-4,4h-88v60h152v-64
		c0-2.4,1.6-4,4-4s4,1.6,4,4v68C484,234.4,482.4,236,480,236z"/>
	<path style="fill:#140500;" d="M420,204h-36c-2.4,0-4-1.6-4-4s1.6-4,4-4h36c2.4,0,4,1.6,4,4S422.4,204,420,204z"/>
</g>
<polygon style="fill:#9F633C;" points="480,300 466,300 334,300 320,300 320,232 334,232 466,232 480,232 "/>
<g>
	<path style="fill:#140500;" d="M480,304H320c-2.4,0-4-1.6-4-4v-68c0-2.4,1.6-4,4-4h160c2.4,0,4,1.6,4,4v68
		C484,302.4,482.4,304,480,304z M324,296h152v-60H324V296z"/>
	<path style="fill:#140500;" d="M420,272h-36c-2.4,0-4-1.6-4-4s1.6-4,4-4h36c2.4,0,4,1.6,4,4S422.4,272,420,272z"/>
</g>
<polygon style="fill:#9F633C;" points="480,368 466,368 334,368 320,368 320,300 334,300 466,300 480,300 "/>
<g>
	<path style="fill:#140500;" d="M480,372H320c-2.4,0-4-1.6-4-4v-68c0-2.4,1.6-4,4-4h160c2.4,0,4,1.6,4,4v68
		C484,370.4,482.4,372,480,372z M324,364h152v-60H324V364z"/>
	<path style="fill:#140500;" d="M420,336h-36c-2.4,0-4-1.6-4-4s1.6-4,4-4h36c2.4,0,4,1.6,4,4S422.4,336,420,336z"/>
</g>
<polygon style="fill:#9F633C;" points="54.4,368 32,368 32,164 53.6,164 "/>
<path style="fill:#140500;" d="M54.4,372H32c-2.4,0-4-1.6-4-4V164c0-2.4,1.6-4,4-4h21.6c2.4,0,4,1.6,4,4L58,368c0,1.2-0.4,2-1.2,2.8
	S55.2,372,54.4,372z M36,364h14.4L50,168H36.4v196H36z"/>
<polyline style="fill:#895129;" points="480,164 508,164 508,144 4,144 4,164 412,164 "/>
<path style="fill:#140500;" d="M508,168h-28c-2.4,0-4-1.6-4-4s1.6-4,4-4h24v-12H8v12h404c2.4,0,4,1.6,4,4s-1.6,4-4,4H4
	c-2.4,0-4-1.6-4-4v-20c0-2.4,1.6-4,4-4h504c2.4,0,4,1.6,4,4v20C512,166.4,510.4,168,508,168z"/>
<g>
</g>
<g>
</g>
<g>
</g>
<g>
</g>
<g>
</g>
<g>
</g>
<g>
</g>
<g>
</g>
<g>
</g>
<g>
</g>
<g>
</g>
<g>
</g>
<g>
</g>
<g>
</g>
<g>
</g>
</svg>
