<?xml version="1.0" encoding="iso-8859-1"?>
<!-- Generator: Adobe Illustrator 19.0.0, SVG Export Plug-In . SVG Version: 6.00 Build 0)  -->
<svg version="1.1" id="Layer_1" xmlns="http://www.w3.org/2000/svg" xmlns:xlink="http://www.w3.org/1999/xlink" x="0px" y="0px"
	 viewBox="0 0 512 512" style="enable-background:new 0 0 512 512;" xml:space="preserve">
<polygon style="fill:#464655;" points="487.999,437 503.999,472 7.999,472 23.999,437 "/>
<path style="fill:#707487;" d="M31.999,40c-4.418,0-8,3.581-8,8v392h40V40H31.999z"/>
<rect x="63.999" y="40" style="fill:#464655;" width="40" height="400"/>
<line style="fill:none;stroke:#000000;stroke-width:16;stroke-linecap:round;stroke-linejoin:round;stroke-miterlimit:10;" x1="63.999" y1="41" x2="63.999" y2="120"/>
<path style="fill:#707487;" d="M486.407,162h1.592V48.714c0-4.813-3.582-8.714-8-8.714h-376v122h346.953H486.407z"/>
<polygon style="fill:#5B5D6E;" points="486.407,152 450.951,152 103.999,152 103.999,440 431.999,440 463.998,440 487.999,440 
	487.999,152 "/>
<path d="M511.154,468.422l-15.155-30.31V47.999c0-8.822-7.177-16-16-16h-376h-72c-8.822,0-16,7.177-16,16v390.112L0.844,468.422
	c-1.24,2.48-1.107,5.425,0.35,7.784C2.651,478.564,5.226,480,7.999,480h496c2.772,0,5.348-1.436,6.805-3.794
	C512.262,473.847,512.395,470.902,511.154,468.422z M55.999,48v72c0,4.419,3.581,8,8,8s8-3.581,8-8V48h24v96h-64V48H55.999z
	 M95.999,432h-24V160h24V432z M31.999,432V160h24v272H31.999z M20.943,464l8-16h75.056h328c4.418,0,8-3.582,8-8c0-4.419-3.582-8-8-8
	h-320V160h320c4.418,0,8-3.581,8-8s-3.582-8-8-8h-320V48h368v96h-16c-4.419,0-8,3.581-8,8s3.581,8,8,8h16v272h-16.001
	c-4.418,0-8,3.581-8,8c0,4.418,3.582,8,8,8h19.056l8,16H20.943z M451.999,128c-6.617,0-12-5.383-12-12s5.383-12,12-12
	s12,5.383,12,12S458.616,128,451.999,128z"/>
<g>
</g>
<g>
</g>
<g>
</g>
<g>
</g>
<g>
</g>
<g>
</g>
<g>
</g>
<g>
</g>
<g>
</g>
<g>
</g>
<g>
</g>
<g>
</g>
<g>
</g>
<g>
</g>
<g>
</g>
</svg>
