<?xml version="1.0" encoding="iso-8859-1"?>
<!-- Generator: Adobe Illustrator 19.1.0, SVG Export Plug-In . SVG Version: 6.00 Build 0)  -->
<svg version="1.1" id="Capa_1" xmlns="http://www.w3.org/2000/svg" xmlns:xlink="http://www.w3.org/1999/xlink" x="0px" y="0px"
	 viewBox="0 0 434 434" style="enable-background:new 0 0 434 434;" xml:space="preserve">
<g>
	<g id="XMLID_17_">
		<g>
			<path d="M434,38.4v246.85H266.61v7.4h34.27v9H133.12v-9h34.27v-7.4H0V38.4H434z M425,276.25v-10.39h-8.9v6.68h-9v-6.68H9v10.39
				H425z M425,256.86V63.8H9v193.06H425z M425,54.8v-7.4H9v7.4H425z M257.61,292.65v-7.4h-81.22v7.4H257.61z"/>
			<polygon style="fill:#4489D3;" points="425,265.86 425,276.25 9,276.25 9,265.86 407.1,265.86 407.1,272.54 416.1,272.54 
				416.1,265.86 			"/>
			<path style="fill:#6A7075;" d="M425,63.8v193.06H9V63.8H425z M42.52,86.17v-9H19.41v9H42.52z"/>
			<rect x="9" y="47.4" style="fill:#4489D3;" width="416" height="7.4"/>
			<path d="M381.43,323.22v72.38H52.56v-72.38H381.43z M372.43,386.6v-6.66H61.56v6.66H372.43z M372.43,370.94v-38.72H61.56v38.72
				H372.43z"/>
			<rect x="61.56" y="379.94" style="fill:#4489D3;" width="310.87" height="6.66"/>
			<path style="fill:#4489D3;" d="M372.43,332.22v38.72H61.56v-38.72H372.43z M360.15,364.28v-9h-11v9H360.15z M360.15,347.88v-9
				h-10.5v9H360.15z M339.37,347.88v-9h-21.59v9H339.37z M339.22,364.28v-9h-21.86v9H339.22z M307.49,347.88v-9H285.9v9H307.49z
				 M307.42,364.28v-9h-21.86v9H307.42z M275.62,364.28v-9h-21.86v9H275.62z M275.61,347.88v-9h-21.59v9H275.61z M243.83,364.28v-9
				h-21.87v9H243.83z M243.73,347.88v-9h-21.59v9H243.73z M212.03,364.28v-9h-21.86v9H212.03z M211.85,347.88v-9h-21.59v9H211.85z
				 M180.23,364.28v-9h-21.86v9H180.23z M179.98,347.88v-9h-21.6v9H179.98z M148.43,364.28v-9h-21.86v9H148.43z M148.1,347.88v-9
				h-21.6v9H148.1z M116.64,364.28v-9H94.78v9H116.64z M116.22,347.88v-9h-21.6v9H116.22z M84.84,364.28v-9h-11v9H84.84z
				 M84.34,347.88v-9h-10.5v9H84.34z"/>
			<rect x="349.15" y="355.28" width="11" height="9"/>
			<rect x="349.65" y="338.88" width="10.5" height="9"/>
			<rect x="317.78" y="338.88" width="21.59" height="9"/>
			<rect x="317.36" y="355.28" width="21.86" height="9"/>
			<rect x="285.9" y="338.88" width="21.59" height="9"/>
			<rect x="285.56" y="355.28" width="21.86" height="9"/>
			<rect x="253.76" y="355.28" width="21.86" height="9"/>
			<rect x="254.02" y="338.88" width="21.59" height="9"/>
			<rect x="176.39" y="285.25" style="fill:#4489D3;" width="81.22" height="7.4"/>
			<rect x="221.96" y="355.28" width="21.87" height="9"/>
			<rect x="222.14" y="338.88" width="21.59" height="9"/>
			<rect x="190.17" y="355.28" width="21.86" height="9"/>
			<rect x="190.26" y="338.88" width="21.59" height="9"/>
			<rect x="158.37" y="355.28" width="21.86" height="9"/>
			<rect x="158.38" y="338.88" width="21.6" height="9"/>
			<rect x="126.57" y="355.28" width="21.86" height="9"/>
			<rect x="126.5" y="338.88" width="21.6" height="9"/>
			<rect x="94.78" y="355.28" width="21.86" height="9"/>
			<rect x="94.62" y="338.88" width="21.6" height="9"/>
			<rect x="73.84" y="355.28" width="11" height="9"/>
			<rect x="73.84" y="338.88" width="10.5" height="9"/>
			<rect x="19.41" y="77.17" width="23.11" height="9"/>
		</g>
	</g>
</g>
<g>
</g>
<g>
</g>
<g>
</g>
<g>
</g>
<g>
</g>
<g>
</g>
<g>
</g>
<g>
</g>
<g>
</g>
<g>
</g>
<g>
</g>
<g>
</g>
<g>
</g>
<g>
</g>
<g>
</g>
</svg>
