<?xml version="1.0" encoding="iso-8859-1"?>
<!-- Generator: Adobe Illustrator 19.0.0, SVG Export Plug-In . SVG Version: 6.00 Build 0)  -->
<svg version="1.1" id="Layer_1" xmlns="http://www.w3.org/2000/svg" xmlns:xlink="http://www.w3.org/1999/xlink" x="0px" y="0px"
	 viewBox="0 0 512 512" style="enable-background:new 0 0 512 512;" xml:space="preserve">
<path style="fill:#415E5C;" d="M62.387,373.771v75.806c0,2.99-2.407,5.415-5.378,5.415H13.983c-2.971,0-5.378-2.424-5.378-5.415
	v-75.806c0-2.99,2.407-5.415,5.378-5.415h43.025C59.979,368.356,62.387,370.781,62.387,373.771z M498.017,368.356h-43.025
	c-2.971,0-5.378,2.424-5.378,5.415v75.806c0,2.99,2.407,5.415,5.378,5.415h43.025c2.971,0,5.378-2.424,5.378-5.415v-75.806
	C503.395,370.781,500.988,368.356,498.017,368.356z"/>
<path style="fill:#5B7F81;" d="M8.605,57.008h494.788v365.228H8.605V57.008L8.605,57.008z"/>
<path style="fill:#415E5C;" d="M503.395,114.541v250.163H368.076V114.541H503.395z"/>
<path style="fill:#97BAA8;" d="M61.521,114.541h318.176v250.163H61.521V114.541L61.521,114.541z"/>
<path style="fill:#B1D7C5;" d="M105.412,364.703H61.521V114.541h215.992L105.412,364.703z"/>
<ellipse style="fill:#234848;" cx="441.546" cy="152.417" rx="22.061" ry="22.309"/>
<path d="M511.998,57.008c0-4.752-3.853-8.605-8.605-8.605H8.605C3.853,48.403,0,52.256,0,57.008v392.568
	c0,7.731,6.273,14.02,13.983,14.02h43.025c7.71,0,13.983-6.289,13.983-14.02v-18.734h370.017v18.734
	c0,7.731,6.273,14.02,13.983,14.02h43.025c7.71,0,13.983-6.289,13.983-14.02L511.998,57.008z M388.301,123.146h43.4
	c-12.093,4.145-20.821,15.696-20.821,29.27c0,17.046,13.756,30.913,30.666,30.913c16.91,0,30.667-13.868,30.667-30.913
	c0-13.574-8.729-25.126-20.821-29.27h43.395v232.952H388.301V123.146z M455.003,152.417c0,7.555-6.036,13.702-13.457,13.702
	c-7.419,0-13.456-6.147-13.456-13.702c0-7.556,6.036-13.705,13.456-13.705S455.003,144.859,455.003,152.417z M17.21,65.613h477.578
	v40.322H379.696H61.521c-4.752,0-8.605,3.853-8.605,8.605v250.163c0,4.752,3.853,8.605,8.605,8.605h318.176c0.003,0,0.006,0,0.011,0
	h115.081v40.324H17.21V65.613z M70.126,356.098V123.146h300.966v232.952H70.126z M53.782,446.387H17.21v-15.545h36.571V446.387z
	 M458.219,446.387v-15.545h36.571v15.545H458.219z M472.214,251.807c0,4.784-3.853,8.663-8.605,8.663h-3.256
	c-4.752,0-8.605-3.879-8.605-8.663c0-4.784,3.853-8.663,8.605-8.663h3.256C468.361,243.144,472.214,247.023,472.214,251.807z
	 M472.214,205.411c0,4.784-3.853,8.663-8.605,8.663h-3.256c-4.752,0-8.605-3.879-8.605-8.663c0-4.784,3.853-8.663,8.605-8.663h3.256
	C468.361,196.748,472.214,200.627,472.214,205.411z M410.881,205.411c0-4.784,3.853-8.663,8.605-8.663h3.256
	c4.752,0,8.605,3.879,8.605,8.663c0,4.784-3.853,8.663-8.605,8.663h-3.256C414.733,214.074,410.881,210.195,410.881,205.411z
	 M410.881,251.807c0-4.784,3.853-8.663,8.605-8.663h3.256c4.752,0,8.605,3.879,8.605,8.663c0,4.784-3.853,8.663-8.605,8.663h-3.256
	C414.733,260.47,410.881,256.592,410.881,251.807z M472.214,298.2c0,4.784-3.853,8.664-8.605,8.664h-44.122
	c-4.752,0-8.605-3.879-8.605-8.664c0-4.784,3.853-8.663,8.605-8.663h44.122C468.361,289.536,472.214,293.416,472.214,298.2z
	 M472.214,338.033c0,4.784-3.853,8.663-8.605,8.663h-44.122c-4.752,0-8.605-3.879-8.605-8.663c0-4.785,3.853-8.664,8.605-8.664
	h44.122C468.361,329.37,472.214,333.249,472.214,338.033z M171.636,182.773l-38.33,55.353c-1.673,2.416-4.348,3.71-7.066,3.71
	c-1.699,0-3.414-0.506-4.913-1.558c-3.898-2.736-4.855-8.136-2.137-12.061l38.33-55.353c2.717-3.926,8.081-4.889,11.98-2.152
	C173.398,173.449,174.354,178.848,171.636,182.773z M245.131,182.034L158.518,307.12c-1.673,2.416-4.348,3.71-7.066,3.71
	c-1.698,0-3.414-0.506-4.913-1.557c-3.898-2.736-4.855-8.137-2.137-12.062l86.613-125.086c2.717-3.925,8.081-4.889,11.98-2.152
	C246.892,172.709,247.848,178.109,245.131,182.034z M272.819,251.768l-38.33,55.352c-1.673,2.416-4.348,3.71-7.066,3.71
	c-1.698,0-3.415-0.506-4.913-1.557c-3.898-2.736-4.855-8.137-2.137-12.062l38.33-55.352c2.717-3.925,8.082-4.889,11.98-2.152
	C274.579,242.444,275.537,247.844,272.819,251.768z"/>
<g>
</g>
<g>
</g>
<g>
</g>
<g>
</g>
<g>
</g>
<g>
</g>
<g>
</g>
<g>
</g>
<g>
</g>
<g>
</g>
<g>
</g>
<g>
</g>
<g>
</g>
<g>
</g>
<g>
</g>
</svg>
