<?xml version="1.0" encoding="iso-8859-1"?>
<!-- Generator: Adobe Illustrator 19.0.0, SVG Export Plug-In . SVG Version: 6.00 Build 0)  -->
<svg version="1.1" id="Layer_1" xmlns="http://www.w3.org/2000/svg" xmlns:xlink="http://www.w3.org/1999/xlink" x="0px" y="0px"
	 viewBox="0 0 505.2 505.2" style="enable-background:new 0 0 505.2 505.2;" xml:space="preserve">
<path style="fill:#E6E7E8;" d="M460,36.8V94h-27.6V39.2c0-4.4-2.8-8-7.2-8h-344c-4.4,0-8.8,3.6-8.8,8V94H44.8V36.8
	c0-19.6,14-32.8,30-32.8H432C447.6,3.6,460,16.8,460,36.8z"/>
<path style="fill:#58595B;" d="M432.4,38.8v54.8h-11.6h-31.2H72.4V38.8c0-4.4,4.4-8,8.8-8h344C429.6,31.2,432.4,34.8,432.4,38.8z
	 M291.6,66.4c0,4.4,3.6,8,8,8h15.6h31.2H362c4.4,0,8-3.6,8-8v-8c0-4.4-3.6-8-8-8h-15.6h-31.2h-15.6c-4.4,0-8,3.6-8,8V66.4z
	 M253.6,78c8.4,0,15.6-6.8,15.6-15.6c0-8.4-6.8-15.6-15.6-15.6c-8.4,0-15.6,6.8-15.6,15.6C238,71.2,244.8,78,253.6,78z M190.8,74
	c6.4,0,11.6-5.2,11.6-11.6s-5.2-11.6-11.6-11.6c-6.4,0-11.6,5.2-11.6,11.6C179.2,68.8,184.4,74,190.8,74z"/>
<g>
	<path style="fill:#808285;" d="M398.4,140.8c8.8,0,14.4,6.8,14.4,15.6V376c0,8.8-5.6,15.6-14.4,15.6h-290
		c-8.8,0-16.8-6.8-16.8-15.6V156.4c0-8.8,8-15.6,16.8-15.6H358h31.2C389.6,140.8,398.4,140.8,398.4,140.8z"/>
	<path style="fill:#808285;" d="M362,50.8c4.4,0,8,3.6,8,8v8c0,4.4-3.6,8-8,8h-15.6V51.2C346.4,50.8,362,50.8,362,50.8z"/>
	<rect x="315.2" y="50.8" style="fill:#808285;" width="31.2" height="23.6"/>
	<path style="fill:#808285;" d="M315.2,50.8v23.6h-15.6c-4.4,0-8-3.6-8-8v-8c0-4.4,3.6-8,8-8h15.6V50.8z"/>
	<path style="fill:#808285;" d="M268.8,62.4c0,8.4-6.8,15.6-15.6,15.6c-8.4,0-15.6-6.8-15.6-15.6c0-8.4,6.8-15.6,15.6-15.6
		C262,47.2,268.8,54,268.8,62.4z"/>
	<path style="fill:#808285;" d="M190.8,74c-6.4,0-11.6-5.2-11.6-11.6s5.2-11.6,11.6-11.6c6.4,0,11.6,5.2,11.6,11.6
		C202,68.8,197.2,74,190.8,74z"/>
</g>
<path style="fill:#E6E7E8;" d="M92,376c0,8.8,8,15.6,16.4,15.6h290c8.8,0,14.4-6.8,14.4-15.6V156.4c0-8.8-5.6-15.6-14.4-15.6h-9.2
	H358H108.4c-8.8,0-16.8,6.8-16.8,15.6L92,376L92,376z M44.8,438.4V94h27.6h317.2h31.2h11.6H460v344.4v62.8H44.8V438.4z"/>
<path d="M460,505.2H44.8c-2.4,0-4-1.6-4-4V36.8C40.8,15.6,55.2,0,74.8,0H432c18.8,0,32.4,15.6,32.4,36.8v464.4
	C464,503.2,462,505.2,460,505.2z M48.8,497.2H456V36.8C456,19.6,446,8,431.6,8H74.4c-14.8,0-26,12.4-26,28.8v460.4H48.8z"/>
<path d="M72.4,98c-2.4,0-4-1.6-4-4V39.2c0-6.8,6.8-12,12.8-12h344c6.4,0,11.2,5.2,11.2,12V94c0,2.4-1.6,4-4,4s-4-1.6-4-4V39.2
	c0-2-1.2-4-3.2-4h-344c-2.4,0-4.8,2-4.8,4V94C76.4,96,74.4,98,72.4,98z"/>
<path d="M389.6,98H45.2c-2.4,0-4-1.6-4-4s1.6-4,4-4h344.4c2.4,0,4,1.6,4,4S391.6,98,389.6,98z"/>
<path d="M460,98h-39.2c-2.4,0-4-1.6-4-4s1.6-4,4-4H460c2.4,0,4,1.6,4,4S462,98,460,98z"/>
<path d="M389.6,442.4H45.2c-2.4,0-4-1.6-4-4s1.6-4,4-4h344.4c2.4,0,4,1.6,4,4S391.6,442.4,389.6,442.4z"/>
<path d="M460,442.4h-39.2c-2.4,0-4-1.6-4-4s1.6-4,4-4H460c2.4,0,4,1.6,4,4S462,442.4,460,442.4z"/>
<path d="M412.8,462h-98c-2.4,0-4-1.6-4-4s1.6-4,4-4h98c2.4,0,4,1.6,4,4S415.2,462,412.8,462z"/>
<path d="M412.8,481.6h-98c-2.4,0-4-1.6-4-4s1.6-4,4-4h98c2.4,0,4,1.6,4,4S415.2,481.6,412.8,481.6z"/>
<path d="M398.4,395.6h-290c-11.2,0-20.8-8.8-20.8-19.6V156.4c0-10.8,9.6-19.6,20.8-19.6H358c2.4,0,4,1.6,4,4s-1.6,4-4,4H108.4
	c-6.8,0-12.8,5.6-12.8,11.6V376c0,6,6,11.6,12.8,11.6h290c6.8,0,10.4-6,10.4-11.6V156.4c0-5.6-3.6-11.6-10.4-11.6h-9.2
	c-2.4,0-4-1.6-4-4s1.6-4,4-4h9.2c10.4,0,18.4,8.4,18.4,19.6V376C416.8,386.8,409.2,395.6,398.4,395.6z"/>
<path d="M253.6,82c-10.8,0-19.6-8.8-19.6-19.6c0-10.8,8.8-19.6,19.6-19.6c10.8,0,19.6,8.8,19.6,19.6C273.2,73.2,264.4,82,253.6,82z
	 M253.6,51.2c-6.4,0-11.6,5.2-11.6,11.6s5.2,11.6,11.6,11.6c6.4,0,11.6-5.2,11.6-11.6S260,51.2,253.6,51.2z"/>
<path d="M190.8,78c-8.4,0-15.6-6.8-15.6-15.6c0-8.4,6.8-15.6,15.6-15.6c8.4,0,15.6,6.8,15.6,15.6C206,71.2,199.2,78,190.8,78z
	 M190.8,54.8c-4,0-7.6,3.6-7.6,7.6s3.6,7.6,7.6,7.6s7.6-3.2,7.6-7.6C198,58.4,194.8,54.8,190.8,54.8z"/>
<path d="M362,78.4h-62.8c-6.4,0-12-5.2-12-12v-8c0-6.4,5.2-12,12-12H362c6.4,0,12,5.2,12,12v8C374,72.8,368.4,78.4,362,78.4z
	 M299.2,54.8c-2,0-4,1.6-4,4v8c0,2,1.6,4,4,4H362c2,0,4-1.6,4-4v-8c0-2-1.6-4-4-4H299.2z"/>
<path d="M315.2,78.4c-2.4,0-4-1.6-4-4V50.8c0-2.4,1.6-4,4-4s4,1.6,4,4v23.6C319.2,76.4,317.2,78.4,315.2,78.4z"/>
<path d="M346.4,78.4c-2.4,0-4-1.6-4-4V50.8c0-2.4,1.6-4,4-4s4,1.6,4,4v23.6C350.4,76.4,348.4,78.4,346.4,78.4z"/>
<g>
</g>
<g>
</g>
<g>
</g>
<g>
</g>
<g>
</g>
<g>
</g>
<g>
</g>
<g>
</g>
<g>
</g>
<g>
</g>
<g>
</g>
<g>
</g>
<g>
</g>
<g>
</g>
<g>
</g>
</svg>
